# xmcd
#
# Track frame offsets: 
#        150
#        9632
#        22930
#        35467
#        46945
#        54235
#        71142
#        89195
#        100357
#        112172
#        125237
#        140432
#        162922
#        179627
#        197495
#        213880
#        226070
#        241260
#        253710
#        270640
#
# Disc length: 3725 seconds
#
# Revision: 0
# Processed by: cddbd v1.4PL0 Copyright (c) Steve Scherf et al.
# Submitted via: ExactAudioCopy v0.90b2
#
DISCID=200e8b14
DTITLE=Various Artist - Hymns of Our Faith Volume Four
DYEAR=1999
DGENRE=Gospel
TTITLE0=Where The Soul Never Dies
TTITLE1=Wasted Years
TTITLE2=More About Jesus
TTITLE3=I Know Who Holds Tomorrow
TTITLE4=Abide With Me
TTITLE5=Gone
TTITLE6=The Great Speckled Bird
TTITLE7=Are You Washed In The Blood
TTITLE8=Just A Closer Walk
TTITLE9=There Is A Fountain
TTITLE10=Sweet Sweet Spirit
TTITLE11=And He's Ever Interceding
TTITLE12=Great Is Thy Faithfulness
TTITLE13=Sweet Beulah Land
TTITLE14=He Looked Beyond My Faults
TTITLE15=Leaning On The Everlasting Arms
TTITLE16=It Is No Secret
TTITLE17=Glory To His Name
TTITLE18=Holy, Holy, Holy
TTITLE19=Everybody Will Be Happy
EXTD=
EXTT0=
EXTT1=
EXTT2=
EXTT3=
EXTT4=
EXTT5=
EXTT6=
EXTT7=
EXTT8=
EXTT9=
EXTT10=
EXTT11=
EXTT12=
EXTT13=
EXTT14=
EXTT15=
EXTT16=
EXTT17=
EXTT18=
EXTT19=
PLAYORDER=
